Release info:

General
Format                                   : Matroska
Format version                           : Version 4 / Version 2
File size                                : 686 MiB
Duration                                 : 2h 35mn
Overall bit rate                         : 618 Kbps
Movie name                               : David 2013 DVDScr Hindi

Video
ID                                       : 1
Format                                   : MPEG-4 Visual
Format profile                           : Advanced Simple@L5
Format settings, BVOP                    : Yes
Format settings, QPel                    : No
Format settings, GMC                     : No warppoints
Format settings, Matrix                  : Default (H.263)
Codec ID                                 : V_MS/VFW/FOURCC / XVID
Codec ID/Hint                            : XviD
Duration                                 : 2h 35mn
Bit rate                                 : 526 Kbps
Width                                    : 608 pixels
Height                                   : 256 pixels
Display aspect ratio                     : 2.40:1
Frame rate mode                          : Constant
Frame rate                               : 25.000 fps
Color space                              : YUV
Chroma subsampling                       : 4:2:0
Bit depth                                : 8 bits
Scan type                                : Progressive
Compression mode                         : Lossy
Bits/(Pixel*Frame)                       : 0.135
Stream size                              : 584 MiB (85%)
Title                                    : David 2013 DVDScr Hindi
Language                                 : Hindi
Default                                  : Yes
Forced                                   : No

Audio
ID                                       : 2
Format                                   : MPEG Audio
Format version                           : Version 1
Format profile                           : Layer 3
Mode                                     : Joint stereo
Mode extension                           : MS Stereo
Codec ID                                 : A_MPEG/L3
Codec ID/Hint                            : MP3
Duration                                 : 2h 35mn
Bit rate mode                            : Constant
Bit rate                                 : 80.0 Kbps
Channel(s)                               : 2 channels
Sampling rate                            : 32.0 KHz
Compression mode                         : Lossy
Stream size                              : 88.8 MiB (13%)
Title                                    : David 2013 DVDScr Hindi
Language                                 : Hindi
Default                                  : Yes
Forced                                   : No


Source:
credit to original movie ripper  (Thanks)

IMDB Info:

The plot revolves around the lives of three different men named David, who are about to take a step which is going to change their lives forever.

Director: Bejoy Nambiar
Writers: Bejoy Nambiar (screenplay), Bejoy Nambiar (story), 
Stars: 'Chiyaan' Vikram, Neil Nitin Mukesh, Jiiva

Genres: Crime | Drama | Romance
 
http://www.imdb.com/title/tt2358412/

Screen Shot:
 
http://www.shotpix.com/images/45006382877854916162.png 
http://www.shotpix.com/images/50831728084266637866.png 
http://www.shotpix.com/images/16446168909905150842.png 
http://www.shotpix.com/images/74178010109337603958.png